# xmcd
#
# Track frame offsets: 
#        210
#        12732
#        26718
#        42107
#        59643
#        75674
#        103173
#        119001
#        132181
#        148472
#        166105
#        194925
#        209570
#        224637
#
# Disc length: 3165 seconds
#
# Revision: 0
# Processed by: cddbd v1.5.2PL0 Copyright (c) Steve Scherf et al.
# Submitted via: ExactAudioCopy v0.95b4
#
DISCID=e90c5b0e
DTITLE=Pewny, Altbart, Winter - Steamin' Blues
DYEAR=2001
DGENRE=Blues;Boogie;Austro
TTITLE0=Mrs. Boogie Woogie
TTITLE1=88 Keys Stomp
TTITLE2=The Jumpin' Four
TTITLE3=Swing Low, Sweet Chariot
TTITLE4=Running Sticks
TTITLE5=Steamin' Blues
TTITLE6=There's A Bright Side Somewhere
TTITLE7=Susy's Rag
TTITLE8=Take Five
TTITLE9=Boogie Brushes
TTITLE10=Papa's Blues
TTITLE11=Kitz Boogie
TTITLE12=Stompin' At The Savoy
TTITLE13=Go Tell It On The Mountain
EXTD=
EXTT0=
EXTT1=
EXTT2=
EXTT3=
EXTT4=
EXTT5=
EXTT6=
EXTT7=
EXTT8=
EXTT9=
EXTT10=
EXTT11=
EXTT12=
EXTT13=
PLAYORDER=
